<svg id="Layer_1" data-name="Layer 1" xmlns="http://www.w3.org/2000/svg" viewBox="0 0 841.89 595.28"><defs><style>.cls-1{fill:#fff;}.cls-2{fill:#ffedc1;}</style></defs><title>Untitled-3</title><path class="cls-1" d="M809.21,39.5V536.35A10.62,10.62,0,0,1,798.83,547a1.23,1.23,0,0,1-.27,0h-763a10.65,10.65,0,0,1-10.64-10.66V39.5A10.65,10.65,0,0,1,35.53,28.86h763A10.66,10.66,0,0,1,809.21,39.5Z"/><path class="cls-2" d="M802.55,546.22a10.3,10.3,0,0,1-3.72.77,1.23,1.23,0,0,1-.27,0h-763a10.65,10.65,0,0,1-10.64-10.66V39.5A10.65,10.65,0,0,1,35.53,28.86H163.85q1.67,8,3.9,15.94A220.41,220.41,0,0,0,206.18,121a196.33,196.33,0,0,0,69,55.27c28.87,14,60.42,21.7,91.95,26.79,34.71,5.61,69.81,8.12,104.8,11.33,62.63,5.73,126.15,14.15,182.27,44.44,24.06,13,46.46,29.77,64.14,50.75,19.47,23.08,31.41,50.21,38.27,79.48C768.78,440.9,768.24,502.91,802.55,546.22Z"/></svg>